<?xml version="1.0" standalone="no"?>
<!DOCTYPE svg PUBLIC "-//W3C//DTD SVG 20010904//EN"
 "http://www.w3.org/TR/2001/REC-SVG-20010904/DTD/svg10.dtd">
<svg version="1.0" xmlns="http://www.w3.org/2000/svg"
 width="595.000000pt" height="819.000000pt" viewBox="0 0 595.000000 819.000000"
 preserveAspectRatio="xMidYMid meet">
<metadata>
Created by potrace 1.16, written by Peter Selinger 2001-2019
</metadata>
<g transform="translate(0.000000,819.000000) scale(0.100000,-0.100000)"
fill="#e5e5e5" stroke="#e5e5e5" stroke-width="100">
<path d="M3381 7550 c-24 -11 -52 -30 -62 -41 -11 -12 -39 -25 -65 -30 -92
-17 -146 -85 -146 -182 0 -41 -3 -47 -17 -41 -9 4 -33 9 -54 12 -30 3 -44 -1
-61 -18 l-24 -21 -63 21 c-198 65 -356 59 -405 -15 -12 -18 -25 -25 -47 -25
-17 0 -51 -10 -75 -21 -133 -65 -149 -260 -27 -323 25 -13 29 -21 30 -65 3
-87 71 -166 142 -164 34 1 35 0 29 -30 -14 -75 -18 -363 -7 -480 7 -67 19
-185 26 -262 8 -77 17 -189 21 -250 l7 -110 -30 -32 c-35 -37 -53 -98 -53
-175 0 -29 -5 -93 -10 -143 -9 -73 -17 -101 -47 -154 l-36 -64 34 -28 c19 -16
65 -41 103 -56 37 -15 70 -32 71 -38 2 -5 6 -27 10 -47 l6 -36 -58 -23 c-50
-20 -76 -23 -188 -23 -111 0 -140 3 -195 23 -176 63 -301 179 -379 353 -39 86
-50 147 -61 325 -13 210 -48 309 -136 382 -176 145 -563 23 -735 -231 -44 -65
-47 -73 -20 -58 37 20 37 9 -5 -77 -24 -49 -46 -99 -49 -111 -6 -21 -4 -23 13
-18 18 6 19 4 11 -36 -4 -24 -19 -90 -33 -148 -30 -123 -31 -126 -11 -110 13
11 15 8 16 -16 6 -113 16 -164 34 -164 16 0 20 -12 35 -100 17 -105 19 -110
40 -110 16 0 20 7 20 33 0 46 35 143 67 190 74 107 192 87 289 -49 26 -37 48
-75 49 -85 1 -10 8 -26 17 -36 8 -10 34 -50 56 -89 106 -184 248 -297 429
-341 128 -31 399 -16 588 32 68 17 205 81 205 96 0 5 4 9 9 9 13 0 -5 -71 -30
-123 l-22 -44 -146 -46 c-80 -25 -243 -75 -361 -112 -118 -37 -298 -89 -400
-115 -331 -86 -381 -107 -436 -181 -36 -50 -44 -91 -44 -240 0 -132 -1 -139
-29 -192 -16 -31 -56 -91 -90 -134 -118 -153 -144 -220 -160 -409 -10 -121 2
-230 34 -304 21 -48 25 -78 32 -245 12 -277 8 -477 -11 -565 -9 -41 -16 -88
-16 -103 0 -71 67 -125 142 -113 136 22 174 98 252 507 14 70 34 150 47 178
25 59 12 58 164 20 183 -46 370 -123 785 -324 441 -213 590 -278 692 -299 24
-5 28 -14 47 -95 12 -49 28 -155 36 -237 33 -320 94 -441 227 -451 41 -3 60 1
85 16 48 30 58 76 40 181 -17 95 -16 257 2 440 7 63 15 151 19 194 l7 80 100
61 c55 34 174 99 265 145 91 46 221 116 290 155 137 78 362 210 397 233 22 14
24 12 53 -50 16 -35 50 -137 75 -226 87 -316 144 -401 268 -402 59 0 102 21
122 60 21 40 19 71 -10 170 -28 93 -40 208 -54 495 l-10 190 24 25 c31 32 55
91 55 132 0 37 -29 106 -60 145 -27 34 -25 40 9 48 16 3 35 13 42 21 6 8 22
14 34 14 36 0 55 11 55 31 0 14 7 19 30 19 l31 0 -25 37 c-14 20 -24 38 -23
39 1 1 29 11 61 21 l59 19 -65 31 c-42 20 -68 39 -73 52 -8 28 -67 67 -195
131 -323 161 -385 238 -282 352 58 64 105 86 212 98 136 14 178 28 221 71 201
201 -60 849 -416 1033 l-51 26 8 107 c4 60 17 189 28 288 11 99 22 225 26 280
l7 101 70 -18 c84 -21 210 -25 264 -8 89 29 135 90 153 206 9 53 8 69 -2 75
-10 6 -8 12 10 24 49 35 75 125 61 220 -15 105 -46 173 -107 234 l-54 54 -9
102 c-29 340 -228 652 -555 871 -180 120 -373 186 -549 186 -115 1 -156 -12
-248 -81 l-55 -40 -12 28 c-39 95 -203 156 -299 111z m153 -36 c64 -22 116
-72 116 -113 0 -37 -6 -39 -31 -7 -23 29 -78 56 -114 56 -17 0 -39 -12 -61
-34 -40 -40 -43 -67 -16 -147 41 -120 33 -161 -20 -98 -78 92 -114 228 -77
289 40 66 112 85 203 54z m601 -33 c294 -61 582 -264 761 -537 100 -153 157
-316 170 -492 l7 -88 -28 -18 c-26 -17 -27 -21 -22 -75 4 -31 13 -76 22 -101
9 -25 19 -71 22 -104 l6 -59 -31 6 c-53 11 -82 37 -112 104 -30 66 -52 83
-110 83 -34 0 -60 -31 -60 -72 0 -39 33 -122 66 -165 57 -75 212 -142 301
-129 l45 6 -6 -58 c-20 -168 -130 -229 -337 -188 -46 10 -94 24 -106 32 -12 8
-30 14 -40 14 -22 0 -149 53 -253 105 -195 98 -433 249 -575 365 -87 71 -265
254 -326 335 -165 218 -384 663 -365 741 3 12 1 24 -5 26 -6 2 -14 27 -16 54
-9 88 36 161 108 178 27 6 27 5 31 -62 4 -79 45 -173 103 -239 82 -95 135 -21
85 117 -24 67 -25 107 -3 132 29 32 102 14 132 -34 15 -25 6 -37 -60 -80 -50
-32 -57 -42 -39 -53 17 -10 88 37 170 112 107 98 145 124 203 144 67 24 150
23 262 0z m-1294 -257 c134 -40 128 -40 154 -8 l23 28 50 -23 c46 -22 51 -28
57 -65 14 -85 115 -317 201 -463 42 -70 43 -75 28 -97 -25 -39 -46 -41 -74 -7
l-25 30 -25 -19 c-14 -11 -31 -20 -38 -20 -25 0 -68 28 -82 54 -17 33 -30 33
-30 0 0 -99 -166 -169 -235 -99 -15 14 -25 36 -25 53 0 38 -24 48 -50 22 -24
-24 -62 -26 -95 -4 -25 16 -55 80 -55 118 0 17 -7 25 -25 28 -20 4 -26 0 -35
-27 -12 -37 -48 -60 -79 -50 -48 15 -105 139 -72 159 24 15 12 44 -22 50 -66
12 -115 93 -96 158 23 84 79 128 161 128 40 0 46 3 59 33 20 45 63 59 165 52
45 -3 119 -16 165 -31z m-231 -594 c33 -64 113 -100 159 -71 11 7 19 1 30 -22
9 -18 32 -40 51 -50 69 -36 191 -5 235 59 l20 29 38 -18 c30 -15 43 -17 68 -8
25 8 36 8 52 -4 31 -22 72 -18 103 8 l27 24 48 -72 c174 -259 468 -515 816
-709 2 -2 -7 -110 -32 -386 -18 -202 -22 -249 -36 -468 -15 -220 -6 -787 15
-927 l14 -99 -55 -61 c-60 -67 -125 -188 -148 -280 -43 -170 6 -334 151 -507
73 -88 388 -383 408 -383 8 0 23 -11 34 -25 l20 -25 22 37 c16 28 30 39 55 44
19 3 39 3 45 -1 7 -4 15 -3 19 2 3 6 47 23 96 40 l90 30 32 -41 c106 -138 58
-236 -167 -345 -174 -85 -270 -136 -440 -236 -233 -137 -427 -244 -569 -314
-64 -32 -181 -98 -261 -146 -80 -49 -172 -101 -205 -115 -61 -28 -162 -56
-171 -48 -2 3 7 25 20 49 69 125 63 282 -22 639 -97 406 -100 475 -35 683 4
12 0 17 -14 17 -47 0 -79 -238 -54 -401 7 -41 36 -177 66 -304 30 -126 60
-266 66 -310 19 -139 -8 -280 -65 -343 l-34 -36 -66 11 c-76 13 -276 99 -636
275 -444 217 -669 308 -874 354 -206 47 -271 65 -341 100 -184 90 -255 243
-227 492 20 175 40 224 152 371 120 158 123 168 130 361 8 263 3 259 475 380
86 22 227 63 313 91 86 28 189 60 227 70 39 11 136 40 216 65 l145 46 26 57
c41 89 52 165 44 309 -3 70 -12 165 -19 212 l-13 85 90 6 c50 4 99 10 108 13
17 8 48 -16 66 -51 5 -10 28 -83 51 -161 23 -79 50 -157 61 -172 63 -88 353
-112 550 -45 103 35 201 90 281 157 l71 60 45 -13 c37 -10 46 -10 53 1 11 18
3 30 -18 30 -32 0 -118 47 -135 74 -10 15 -21 49 -24 76 -5 41 -9 50 -25 50
-17 0 -19 -5 -12 -47 3 -27 10 -56 15 -65 14 -26 13 -26 -58 -49 -95 -30 -329
-38 -461 -15 -145 25 -280 84 -385 170 -18 14 -18 16 -1 45 14 24 16 35 6 55
-9 20 -7 41 8 102 11 43 20 86 20 97 0 18 5 19 83 13 102 -8 165 -36 187 -84
15 -32 16 -33 67 -29 96 7 153 76 161 195 5 79 -16 140 -71 199 -55 60 -107
56 -130 -9 -5 -15 -11 -15 -64 -3 -32 8 -110 32 -174 53 -145 50 -242 66 -335
59 l-71 -6 -2 77 c-2 80 -10 166 -41 469 -13 123 -13 399 -1 493 6 41 11 83
11 93 0 26 8 21 30 -23z m2524 -331 c48 -37 106 -183 106 -264 0 -53 -21 -108
-52 -137 -25 -23 -39 -28 -79 -28 -62 0 -143 28 -204 70 -35 24 -54 48 -76 94
-29 61 -38 119 -19 131 5 3 21 3 35 -1 20 -5 34 -23 60 -79 32 -66 39 -74 84
-94 62 -26 76 -26 101 -1 27 27 25 54 -9 189 -16 63 -27 121 -24 128 8 20 47
16 77 -8z m-3619 -520 c85 -32 119 -70 139 -156 26 -116 20 -189 -31 -368 -14
-49 -43 -174 -63 -277 -40 -197 -72 -286 -113 -312 -35 -23 -52 -12 -91 58
-95 169 -214 233 -321 173 -43 -24 -103 -104 -112 -149 -10 -52 -20 -39 -33
41 -10 63 -16 80 -31 84 -17 5 -19 16 -20 114 -2 131 -4 104 15 194 8 42 16
100 17 130 1 43 11 72 50 147 27 51 49 95 49 98 0 3 -10 2 -22 -2 -21 -6 -20
-4 7 26 49 52 145 121 220 156 138 66 244 79 340 43z m2888 -61 c56 -28 138
-66 182 -84 l80 -33 3 -73 c1 -40 -4 -131 -12 -203 -9 -71 -23 -211 -32 -310
-10 -99 -19 -182 -20 -184 -2 -1 -31 4 -66 13 -36 9 -82 16 -104 16 -84 0
-144 -60 -144 -143 0 -63 21 -103 128 -236 148 -185 131 -300 -71 -468 -49
-41 -91 -73 -92 -71 -2 2 -11 66 -21 143 -25 205 -25 721 1 1010 12 126 55
651 55 662 0 7 2 13 5 13 3 0 51 -23 108 -52z m-1513 -249 c41 -11 112 -33
157 -49 76 -27 213 -60 248 -60 18 0 21 36 3 42 -17 6 0 28 21 28 47 0 104
-104 102 -189 -2 -96 -37 -150 -112 -171 -25 -7 -30 -5 -47 24 -28 47 -93 75
-199 86 -48 5 -91 10 -95 10 -5 0 -8 5 -8 10 0 6 -7 26 -14 45 -11 26 -19 33
-31 29 -12 -5 -15 -13 -10 -28 16 -51 13 -144 -6 -220 -14 -55 -17 -82 -10
-89 32 -32 -4 -63 -83 -73 -129 -15 -179 -9 -276 33 -72 32 -75 40 -41 114 26
56 31 81 40 210 12 179 26 219 84 248 57 28 176 28 277 0z m-1171 -144 c2
-108 21 -193 69 -300 39 -87 40 -92 31 -157 -14 -116 -70 -310 -115 -399 -24
-48 -70 -109 -83 -109 -22 0 -130 124 -174 201 -32 54 -33 59 -9 59 67 1 123
135 167 405 9 55 23 120 31 145 25 73 64 233 65 265 l1 30 8 -30 c4 -16 8 -66
9 -110z m322 -588 c35 -21 100 -49 144 -64 106 -35 273 -37 379 -4 38 11 71
19 73 17 2 -2 6 -62 10 -133 l6 -130 -36 -40 c-43 -47 -128 -88 -226 -108
-212 -45 -401 -56 -520 -31 -64 13 -211 71 -211 83 0 2 11 19 24 36 61 80 129
265 163 448 l17 86 57 -61 c31 -34 85 -78 120 -99z m2515 62 c160 -49 254
-120 379 -284 195 -257 268 -609 152 -733 -36 -39 -68 -50 -178 -62 -58 -6
-125 -21 -151 -32 -45 -19 -148 -115 -148 -137 0 -17 -78 -13 -234 10 -138 21
-266 22 -310 4 -17 -7 -18 -5 -12 21 15 59 74 171 117 220 24 29 99 97 165
152 132 109 162 142 195 217 17 39 21 61 17 116 -6 78 -23 111 -118 234 -80
103 -100 143 -100 200 0 94 78 120 226 74z m-1485 -97 c120 -58 225 -82 394
-89 155 -6 286 10 355 45 38 18 40 19 56 1 20 -22 16 -29 -54 -82 -165 -127
-354 -187 -542 -173 -47 4 -107 14 -135 23 -79 25 -99 50 -130 166 -15 56 -31
115 -36 130 -5 16 -5 27 -1 25 4 -2 46 -23 93 -46z m1297 -1177 c95 -14 186
-25 202 -25 26 0 30 -4 30 -27 0 -35 28 -79 76 -119 l36 -31 -78 -7 c-117 -11
-192 -30 -502 -132 -9 -2 -26 24 -49 74 -31 65 -37 91 -41 164 -5 96 -3 100
75 116 61 13 70 12 251 -13z m531 -305 c147 -72 221 -119 221 -140 0 -9 14
-24 30 -34 37 -21 31 -36 -16 -36 l-36 0 26 -31 c33 -39 33 -47 -4 -41 -32 5
-38 -6 -18 -26 18 -18 -6 -32 -53 -32 -27 0 -38 -5 -42 -19 -3 -13 -36 -29
-125 -59 l-120 -40 -23 24 c-29 31 -37 30 -41 -3 -2 -22 -8 -28 -24 -26 -16 2
-25 -6 -35 -29 l-13 -31 -30 34 c-17 19 -38 34 -47 34 -40 0 -412 366 -392
385 11 12 284 95 368 113 39 9 111 16 161 16 l91 1 122 -60z m71 -842 c1 -29
5 -136 10 -238 10 -195 25 -303 59 -409 18 -57 18 -68 6 -97 -25 -60 -125 -67
-183 -13 -48 44 -90 154 -167 429 -14 52 -39 121 -54 152 l-29 56 102 49 c55
26 133 65 171 85 39 20 73 37 78 38 4 0 7 -24 7 -52z m-3897 -74 c45 -41 129
-82 235 -114 39 -12 72 -25 72 -30 0 -4 -9 -27 -19 -51 -11 -24 -36 -129 -56
-234 -36 -189 -69 -304 -100 -351 -51 -78 -178 -86 -204 -12 -8 22 -6 44 7 91
15 53 17 109 16 400 -1 185 1 337 4 337 2 0 23 -16 45 -36z m2373 -899 c-14
-140 -15 -451 -1 -550 6 -43 4 -53 -15 -73 -41 -44 -144 -21 -186 43 -32 49
-65 191 -85 365 -10 96 -26 201 -34 233 -8 32 -15 62 -15 66 0 5 29 11 64 14
64 6 194 50 251 85 l30 19 3 -31 c1 -17 -4 -94 -12 -171z"/>
<path d="M3600 6923 c0 -5 23 -54 50 -111 33 -69 53 -101 61 -96 8 4 9 3 5 -4
-10 -16 81 -145 163 -234 110 -118 274 -238 451 -329 125 -64 314 -147 323
-142 21 13 -1 33 -70 63 -202 87 -369 179 -498 275 -171 126 -336 329 -414
509 -25 56 -39 76 -52 76 -11 0 -19 -3 -19 -7z"/>
<path d="M2935 6196 c-39 -17 -60 -41 -84 -97 -69 -156 -38 -404 64 -506 31
-31 51 -43 71 -43 76 0 133 84 154 227 26 180 -38 378 -137 419 -38 16 -31 16
-68 0z m79 -47 c50 -39 96 -171 96 -274 l-1 -40 -23 45 c-12 25 -35 52 -49 60
-24 13 -30 13 -54 0 -42 -23 -63 -74 -63 -150 1 -108 46 -179 106 -167 28 5
30 -1 7 -19 -67 -51 -146 40 -174 200 -21 125 7 284 61 338 34 33 58 35 94 7z"/>
<path d="M3544 6051 c-193 -120 -147 -674 52 -637 48 10 100 75 127 161 17 54
22 94 22 180 0 136 -19 205 -72 264 -46 50 -85 60 -129 32z m104 -57 c41 -49
62 -132 61 -235 l-1 -84 -16 46 c-22 61 -39 79 -72 79 -45 0 -59 -10 -81 -53
-30 -57 -36 -137 -15 -192 21 -54 60 -88 90 -79 18 6 19 5 7 -10 -21 -25 -64
-20 -95 13 -82 86 -92 328 -20 473 43 85 94 101 142 42z"/>
<path d="M2463 4019 c-34 -5 -115 -25 -180 -45 -65 -19 -208 -55 -318 -80
-110 -24 -229 -54 -265 -66 -103 -33 -220 -86 -220 -100 0 -19 57 -70 103 -92
57 -27 196 -63 347 -91 103 -19 393 -112 530 -169 47 -20 144 -68 215 -107
168 -91 228 -116 313 -129 129 -20 234 14 493 161 201 114 305 163 394 185
109 28 137 77 63 112 -53 24 -485 170 -748 252 -107 33 -240 79 -295 101 -55
22 -125 46 -155 54 -73 20 -200 26 -277 14z m317 -66 c168 -62 381 -133 690
-233 409 -132 475 -157 459 -176 -6 -8 -19 -14 -29 -14 -56 0 -253 -88 -425
-190 -225 -132 -343 -176 -455 -167 -83 6 -144 30 -305 118 -71 39 -175 91
-230 114 -163 69 -436 154 -595 186 -82 16 -179 38 -216 50 -62 19 -144 62
-144 75 0 3 28 18 63 34 72 33 194 67 390 109 75 17 192 47 259 67 189 56 233
64 348 61 88 -3 119 -8 190 -34z"/>
<path d="M1363 3614 c-9 -23 31 -59 116 -103 84 -43 175 -73 388 -126 173 -43
239 -66 458 -162 210 -93 437 -183 460 -183 10 0 15 6 13 16 -2 10 -36 28 -93
49 -49 18 -200 80 -335 138 -265 114 -339 140 -530 187 -241 60 -363 108 -429
169 -38 36 -40 36 -48 15z"/>
</g>
</svg>
