<svg xmlns="http://www.w3.org/2000/svg" width="228" height="120" viewBox="0 0 228 120" >

        <path id="title" d="M25.2305 92.1848L0.0546875 103.261L4.58769 110.309C10.1256 102.254 23.2154 89.567 31.2706 103.261C41.3396 120.378 71.5467 107.288 73.5605 107.288C75.5743 107.288 82.6259 103.261 91.6847 110.309C108.552 123.433 133.975 120.378 135.485 115.847C136.995 111.316 135.485 103.417 154.616 107.288C196.906 115.847 180.292 92.1848 184.823 86.1435C189.354 80.1023 210.499 92.1848 214.527 84.1297C218.554 76.0747 203.451 72.5504 214.527 70.5366C225.603 68.5228 231.644 55.9365 224.596 37.8127C217.548 19.689 196.906 37.8127 192.878 35.295C188.851 32.7773 196.403 18.1777 184.823 12.1363C173.244 6.09494 153.609 19.688 148.575 18.1777C143.54 16.6673 153.609 12.1363 142.03 2.06739C130.45 -8.00151 108.299 24.2192 103.264 27.7434C98.2296 31.2676 97.2227 16.1639 84.6364 12.1363C72.0501 8.10869 67.5191 37.8127 61.4777 45.8675C55.4362 53.9223 54.4293 41.8403 41.8431 37.8127C29.2568 33.7851 42.85 73.5575 31.2706 75.0679C22.0071 76.2762 23.3841 86.9826 25.2305 92.1848Z"
        fill="#e4e4e4" />
    <text x="70px" y="80px" font-family="Leckerli One, cursive" font-size="30px" stroke="black" stroke-width="1">В начало</text> 
</svg>