<?xml version="1.0" standalone="no"?>
<!DOCTYPE svg PUBLIC "-//W3C//DTD SVG 20010904//EN"
 "http://www.w3.org/TR/2001/REC-SVG-20010904/DTD/svg10.dtd">
<svg version="1.0" xmlns="http://www.w3.org/2000/svg"
 width="80.000000pt" height="64.000000pt" viewBox="0 0 80.000000 64.000000"
 preserveAspectRatio="xMidYMid meet">
<metadata>
Created by potrace 1.16, written by Peter Selinger 2001-2019
</metadata>
<g transform="translate(20.000000,50.000000) scale(0.06,-0.06)"
fill="#e5e5e5" stroke="none">
<path d="M123 570 c-33 -19 -58 -54 -49 -68 3 -5 -6 -57 -19 -118 -13 -60 -24
-143 -25 -184 0 -70 2 -78 32 -114 37 -45 81 -66 139 -66 90 0 148 54 158 149
l6 56 41 3 41 3 5 -55 c8 -96 75 -157 170 -155 58 1 81 9 115 40 47 42 58 94
44 197 -20 137 -50 284 -61 297 -17 20 -65 37 -96 33 -21 -2 -30 -9 -32 -25
-3 -19 3 -23 38 -29 49 -8 52 -14 72 -131 l14 -81 -24 16 c-39 25 -110 20
-159 -11 -24 -15 -43 -31 -43 -36 0 -4 -35 -7 -78 -7 -70 2 -83 5 -111 29 -59
49 -103 55 -181 23 -12 -5 -15 0 -14 26 1 37 11 88 25 136 9 26 16 32 39 32
31 0 55 23 46 45 -8 21 -55 19 -93 -5z m112 -280 c48 -18 75 -59 75 -114 0
-53 -56 -106 -112 -106 -35 0 -47 6 -80 40 -42 45 -47 73 -23 121 17 32 69 69
97 69 9 0 29 -5 43 -10z m467 -26 c23 -23 28 -36 28 -77 0 -42 -5 -54 -34 -83
-28 -28 -42 -34 -76 -34 -36 0 -48 6 -75 34 -41 43 -47 75 -25 124 33 73 124
91 182 36z"/>
</g>
</svg>
