<?xml version="1.0" standalone="no"?>
<!DOCTYPE svg PUBLIC "-//W3C//DTD SVG 20010904//EN"
 "http://www.w3.org/TR/2001/REC-SVG-20010904/DTD/svg10.dtd">
<svg version="1.0" xmlns="http://www.w3.org/2000/svg"
 width="128.000000pt" height="128.000000pt" viewBox="0 0 128.000000 128.000000"
 preserveAspectRatio="xMidYMid meet">
<metadata>
Created by potrace 1.16, written by Peter Selinger 2001-2019
</metadata>
<g transform="translate(0.000000,128.000000) scale(0.100000,-0.100000)"
fill="#eceeef" stroke="none">
<path d="M495 1174 c-113 -23 -244 -94 -334 -179 -42 -40 -84 -87 -94 -104
-17 -30 -17 -31 2 -47 19 -17 19 -18 -10 -76 -41 -81 -59 -166 -59 -283 0
-110 16 -186 56 -271 29 -63 46 -74 120 -81 34 -4 59 -12 70 -24 21 -23 31
-23 101 -3 38 11 57 22 63 38 6 16 -9 84 -50 237 -76 286 -77 288 -106 295
-39 10 -123 -15 -140 -42 -9 -13 -13 -27 -11 -31 3 -5 -8 -16 -24 -26 -29 -16
-30 -16 -25 1 2 9 7 33 11 52 11 59 67 172 79 160 20 -20 40 -9 95 52 112 124
237 180 401 180 168 0 289 -56 408 -188 56 -62 64 -68 82 -56 18 11 22 8 44
-36 22 -43 33 -76 50 -154 l6 -27 -29 17 c-16 9 -27 20 -24 25 2 4 -2 18 -11
31 -17 27 -101 52 -140 42 -29 -7 -28 -4 -105 -291 -42 -157 -57 -225 -51
-241 6 -16 25 -27 63 -38 70 -20 80 -20 101 3 11 12 36 20 70 24 74 7 91 18
120 81 41 87 56 161 56 276 0 116 -14 184 -57 273 -25 54 -26 59 -10 68 34 19
18 50 -75 143 -80 80 -107 100 -188 139 -151 74 -298 93 -455 61z m309 -61
c121 -30 255 -114 332 -209 l34 -41 -24 -12 c-22 -12 -28 -8 -93 56 -203 200
-511 228 -746 67 -37 -26 -85 -66 -105 -91 -38 -44 -39 -44 -61 -26 l-23 18
42 47 c155 176 406 251 644 191z m-564 -487 c0 -2 27 -106 61 -231 33 -125 59
-228 57 -229 -7 -5 -78 -24 -78 -21 0 2 -27 105 -61 230 -33 125 -59 228 -57
230 4 3 61 23 71 24 4 1 7 -1 7 -3z m856 -12 c13 -3 24 -9 24 -12 0 -3 -27
-106 -60 -229 -33 -124 -60 -226 -60 -228 0 -3 -71 16 -78 21 -2 1 24 104 57
229 34 125 61 229 61 232 0 3 7 2 16 -1 9 -3 27 -9 40 -12z m-931 -245 c25
-90 45 -170 45 -177 0 -16 -68 -6 -88 12 -21 20 -62 152 -69 219 -5 62 -5 64
27 90 18 16 34 26 37 24 2 -3 24 -78 48 -168z m1049 132 c16 -17 18 -30 13
-82 -7 -66 -49 -195 -69 -215 -19 -17 -88 -28 -88 -13 0 9 65 260 86 331 6 21
27 13 58 -21z"/>
</g>
</svg>
